<svg width="1000" height="250" viewBox="0 0 1000 250" fill="none" xmlns="http://www.w3.org/2000/svg">
<rect width="1000" height="250" rx="5" fill="#F2F2F2"/>
<rect x="21" y="21" width="958" height="208" fill="#E13B3B"/>
<rect x="21" y="21" width="40" height="40" fill="#CBEFFF"/>
<path d="M29.9886 32.4091C29.9801 31.9375 30.0568 31.5582 30.2188 31.2713C30.3807 30.9844 30.5909 30.7756 30.8494 30.6449C31.1108 30.5142 31.3864 30.4489 31.6761 30.4489C31.9659 30.4489 32.2301 30.5128 32.4688 30.6406C32.7102 30.7656 32.9858 30.9631 33.2955 31.233C33.5057 31.4148 33.6733 31.5426 33.7983 31.6165C33.9261 31.6903 34.0653 31.7273 34.2159 31.7273C34.4602 31.7273 34.6534 31.6392 34.7955 31.4631C34.9375 31.2841 35.0057 31.0256 35 30.6875H35.9205C35.929 31.1591 35.8523 31.5384 35.6903 31.8253C35.5313 32.1122 35.321 32.321 35.0597 32.4517C34.7983 32.5824 34.5227 32.6477 34.233 32.6477C33.9432 32.6477 33.679 32.5852 33.4403 32.4602C33.2017 32.3324 32.9261 32.1335 32.6136 31.8636C32.4062 31.6818 32.2386 31.554 32.1108 31.4801C31.983 31.4062 31.8438 31.3693 31.6932 31.3693C31.4631 31.3693 31.2727 31.4503 31.1222 31.6122C30.9744 31.7713 30.9034 32.0369 30.9091 32.4091H29.9886Z" fill="black"/>
<path d="M41.2045 42.5682L39.875 40.5909H41.0511L42.0909 42.5682H41.2045Z" fill="black"/>
<rect x="63" y="21" width="40" height="40" fill="#CBEFFF"/>
<path d="M82.9716 37.2727V46H81.9148V38.3807H81.8636L79.733 39.7955V38.7216L81.9148 37.2727H82.9716Z" fill="black"/>
<path d="M73.25 27.2727L73.1648 33.5455H72.1761L72.0909 27.2727H73.25ZM72.6705 36.0682C72.4602 36.0682 72.2798 35.9929 72.1293 35.8423C71.9787 35.6918 71.9034 35.5114 71.9034 35.3011C71.9034 35.0909 71.9787 34.9105 72.1293 34.7599C72.2798 34.6094 72.4602 34.5341 72.6705 34.5341C72.8807 34.5341 73.0611 34.6094 73.2116 34.7599C73.3622 34.9105 73.4375 35.0909 73.4375 35.3011C73.4375 35.4403 73.402 35.5682 73.331 35.6847C73.2628 35.8011 73.1705 35.8949 73.054 35.9659C72.9403 36.0341 72.8125 36.0682 72.6705 36.0682Z" fill="black"/>
</svg>
